<svg width="35" height="43" fill="none" xmlns="http://www.w3.org/2000/svg"><g filter="url(#filter0_d)"><path d="M17.6 0h-.1L4 1.4v24.7l13.5 8 13.4-8V1.4L17.6 0zM29 12.1L17.5 5.3v-.1h-.1l-.1-.1v.1L5.9 12.1v-9l11.5-1.2L29 3.1v9zM17.4 6.8l11.5 6.7-4.5 2.6-7.1-4.2v1.4l5.9 3.5-.9.5-5-3v1.4l3.8 2.3-.8.5-3-1.8v1.4l1.9 1.1-1.8 1.1L6 13.6l11.4-6.8zM5.9 15.1l11.4 6.8v1l-7.9-4.7v1.4l8 4.8v1.1l-8-4.7v1.4l8 4.8 8.1-4.9v-5.2l3.4-2v10l-11.5 6.9L5.9 25v-9.9z" fill="#000"/><path d="M28.745 12.53l.755.447V2.65l-.449-.047-11.6-1.2-.051-.006-.052.006-11.5 1.2-.448.046v10.338l.759-.46 11.16-6.754 11.427 6.757zM17.652 6.368l-.255-.148-.253.15-11.4 6.8-.725.433.728.428 11.4 6.7.258.152.256-.156 1.8-1.1.717-.439-.727-.42-1.651-.956v-.229l2.243 1.346.262.157.26-.162.8-.5.69-.43-.696-.422-3.559-2.154v-.235l4.243 2.546.247.148.253-.14.9-.5.761-.423-.749-.444-5.655-3.355v-.238l6.345 3.753.252.15.253-.147 4.5-2.6.746-.431-.744-.434-11.5-6.7zM6.156 14.671L5.4 14.22v11.065l.246.145 11.5 6.8.256.152.255-.153 11.5-6.9.243-.146V14.026l-.753.443-3.4 2-.247.145v5.204l-7.1 4.295v-1.996l-.243-.146L9.9 19.317v-.238l7.144 4.25.756.45v-2.163l-.244-.145-11.4-6.8zm10.99 11.26l.535.314-.282.171-7.499-4.5v-.242l7.247 4.257zM4.5 1.851L17.526.5h.048L30.4 1.85v23.966l-12.9 7.702-13-7.703V1.851z" stroke="#000"/></g><defs><filter id="filter0_d" x="0" y="0" width="34.9" height="42.1" filterUnits="userSpaceOnUse" color-interpolation-filters="sRGB"><feFlood flood-opacity="0" result="BackgroundImageFix"/><feColorMatrix in="SourceAlpha" values="0 0 0 0 0 0 0 0 0 0 0 0 0 0 0 0 0 0 127 0"/><feOffset dy="4"/><feGaussianBlur stdDeviation="2"/><feColorMatrix values="0 0 0 0 0 0 0 0 0 0 0 0 0 0 0 0 0 0 0.25 0"/><feBlend in2="BackgroundImageFix" result="effect1_dropShadow"/><feBlend in="SourceGraphic" in2="effect1_dropShadow" result="shape"/></filter></defs></svg>