<svg version="1.0" xmlns="http://www.w3.org/2000/svg" width="933.333" height="933.333" viewBox="0 0 700 700"><path d="M0 350v350h700V0H0v350zm380-233.5c28.8 2.9 49.2 8.1 75.3 18.9 14.5 6 39.7 19.2 39.7 20.7 0 .8-37.6 84.9-38.3 85.5-.2.3-6-3.2-12.8-7.6-14.9-9.8-35.6-20.2-45.9-23-9-2.4-28.6-4.4-34.4-3.4-15.2 2.5-33.3 15-39.5 27.5-1.6 3.3-3.3 8.3-3.6 11.2-.6 4.6-.3 6.1 2.5 12 3.9 8 11.7 15.8 21.5 21.2 7.6 4.3 35 13.4 59.5 19.9 28.6 7.6 35.1 9.6 43.8 13.6 26.6 12.5 45.5 32.9 57.7 62.5 16.1 38.8 12.9 85.4-8.6 127.6-13.4 26.1-30.6 45.4-52.4 58.5-6 3.7-22.3 10.4-32.1 13.3-57.4 16.9-114.6 11.9-168.9-14.9-8.8-4.3-20.7-11-26.5-14.8-11.9-7.7-30.8-22.6-31.6-24.7-.4-.8 11.3-20.5 27.3-45.9l27.8-44.5 13 12.8c33.8 33.3 50.6 43 82 47.3 19.6 2.7 32.6.2 46.7-9.1 12.5-8.1 17.9-16.5 20-30.9 2.1-14.4-2.7-26.6-14.4-36.3-8.4-6.9-16.1-12-25.3-16.6-9.6-4.8-15.7-6.8-38.3-12.7-26.5-7-39.4-11.8-59.2-22.3-23.3-12.2-37.1-26.2-47-47.7-7.3-15.7-11.9-37.5-12-56.3 0-17 6.6-44.7 14.6-60.5 6-12.1 17.8-29.1 26.5-38.2 18.3-19.4 39-31 68.7-38.7 21.8-5.6 40.1-6.9 64.2-4.4z"/></svg>